<?xml version="1.0" encoding="UTF-8" standalone="no"?>
<!-- Created with Inkscape (http://www.inkscape.org/) -->

<svg
   width="210mm"
   height="297mm"
   viewBox="0 0 210 297"
   version="1.1"
   id="svg1"
   xml:space="preserve"
   inkscape:version="1.3 (0e150ed6c4, 2023-07-21)"
   sodipodi:docname="Untitled drawing(4).svg"
   xmlns:inkscape="http://www.inkscape.org/namespaces/inkscape"
   xmlns:sodipodi="http://sodipodi.sourceforge.net/DTD/sodipodi-0.dtd"
   xmlns="http://www.w3.org/2000/svg"
   xmlns:svg="http://www.w3.org/2000/svg"><sodipodi:namedview
     id="namedview1"
     pagecolor="#ffffff"
     bordercolor="#000000"
     borderopacity="0.25"
     inkscape:showpageshadow="2"
     inkscape:pageopacity="0.0"
     inkscape:pagecheckerboard="0"
     inkscape:deskcolor="#d1d1d1"
     inkscape:document-units="mm"
     inkscape:zoom="0.81513047"
     inkscape:cx="396.86898"
     inkscape:cy="561.25984"
     inkscape:window-width="1920"
     inkscape:window-height="1171"
     inkscape:window-x="-9"
     inkscape:window-y="-9"
     inkscape:window-maximized="1"
     inkscape:current-layer="layer1" /><defs
     id="defs1" /><g
     inkscape:label="Layer 1"
     inkscape:groupmode="layer"
     id="layer1"><path
       d="m 115.14026,97.63125 c -1.81722,0 -3.61282,0.09209 -5.38262,0.271818 -1.7698,0.179733 -3.51351,0.44724 -5.22707,0.797884 -1.71356,0.350645 -3.39719,0.784343 -5.045686,1.297079 -1.648496,0.512739 -3.262301,1.104429 -4.836914,1.770439 -1.574614,0.666 -3.109876,1.40646 -4.601787,2.21691 -1.49191,0.81046 -2.940433,1.69097 -4.34082,2.63705 -1.400387,0.94609 -2.752424,1.95794 -4.052466,3.03083 -1.300042,1.07289 -2.547913,2.20684 -3.73879,3.39772 -1.190876,1.19088 -2.324835,2.43823 -3.397725,3.73827 -1.07289,1.30005 -2.08474,2.6526 -3.030823,4.05299 -0.946083,1.40038 -1.826594,2.84891 -2.637048,4.34082 -0.810455,1.49191 -1.550914,3.02717 -2.216919,4.60178 -0.666005,1.57462 -1.257699,3.18842 -1.770435,4.83692 -0.512735,1.64849 -0.946434,3.33161 -1.297078,5.04517 -0.350645,1.71355 -0.618152,3.45779 -0.797884,5.22758 -0.179733,1.7698 -0.271818,3.56541 -0.271818,5.38262 0,1.81722 0.09208,3.61282 0.271818,5.38262 0.179732,1.7698 0.447239,3.51351 0.797884,5.22707 0.350644,1.71356 0.784343,3.39719 1.297078,5.04569 0.512736,1.64849 1.10443,3.2623 1.770435,4.83691 0.666005,1.57462 1.406464,3.10988 2.216919,4.60179 0.810454,1.49191 1.690965,2.94043 2.637048,4.34082 0.946083,1.40039 1.957933,2.75242 3.030823,4.05246 1.07289,1.30005 2.206849,2.54792 3.397725,3.73879 1.190877,1.19088 2.438748,2.32484 3.73879,3.39773 1.300042,1.07289 2.652079,2.08474 4.052466,3.03082 1.400387,0.94608 2.84891,1.8266 4.34082,2.63705 1.491911,0.81045 3.027173,1.55091 4.601787,2.21692 1.574613,0.666 3.188418,1.2577 4.836914,1.77043 1.648496,0.51274 3.332126,0.94644 5.045686,1.29708 1.71356,0.35065 3.45727,0.61815 5.22707,0.79789 1.7698,0.17973 3.5654,0.27181 5.38262,0.27181 1.81722,0 3.61282,-0.0921 5.38262,-0.27181 1.76979,-0.17974 3.51403,-0.44724 5.22758,-0.79789 1.71356,-0.35064 3.39668,-0.78434 5.04517,-1.29708 1.6485,-0.51273 3.2623,-1.10443 4.83692,-1.77043 1.57461,-0.66601 3.10987,-1.40647 4.60178,-2.21692 1.49191,-0.81045 2.94044,-1.69097 4.34082,-2.63705 1.40039,-0.94608 2.75295,-1.95793 4.05299,-3.03082 1.30004,-1.07289 2.54739,-2.20685 3.73827,-3.39773 1.19088,-1.19087 2.32535,-2.43874 3.39824,-3.73879 1.07289,-1.30004 2.08423,-2.65207 3.03031,-4.05246 0.94608,-1.40039 1.82659,-2.84891 2.63705,-4.34082 0.81045,-1.49191 1.55091,-3.02717 2.21692,-4.60179 0.666,-1.57461 1.2577,-3.18842 1.77043,-4.83691 0.51274,-1.6485 0.94643,-3.33213 1.29708,-5.04569 0.35064,-1.71356 0.61815,-3.45727 0.79788,-5.22707 0.17974,-1.7698 0.27182,-3.5654 0.27182,-5.38262 0,-1.74531 -0.0864,-3.48161 -0.25735,-5.2033 -0.17095,-1.72169 -0.42665,-3.42889 -0.76378,-5.11545 -0.33712,-1.68656 -0.75615,-3.35254 -1.2547,-4.99246 -0.49854,-1.63992 -1.07648,-3.25359 -1.73168,-4.83536 -0.65519,-1.58178 -1.38762,-3.13152 -2.19469,-4.64365 -0.80708,-1.51212 -1.68855,-2.98685 -2.64274,-4.41781 -0.95419,-1.43097 -1.98079,-2.81856 -3.07733,-4.15686 -1.09654,-1.33829 -2.26333,-2.62713 -3.49746,-3.86126 -1.23412,-1.23412 -2.52296,-2.40092 -3.86126,-3.49746 -1.3383,-1.09654 -2.72589,-2.12314 -4.15685,-3.07733 -1.43097,-0.95419 -2.90518,-1.83566 -4.41731,-2.64273 -1.51212,-0.80708 -3.06238,-1.53951 -4.64416,-2.1947 -1.58177,-0.6552 -3.19544,-1.23314 -4.83536,-1.73168 -1.63992,-0.498544 -3.3059,-0.917574 -4.99246,-1.254704 -1.68656,-0.337129 -3.39376,-0.592313 -5.11545,-0.763261 -1.72169,-0.170947 -3.45798,-0.257865 -5.2033,-0.257865 z m 0.33538,10.03763 c 1.19207,0.0104 2.39061,0.0738 3.59254,0.19069 1.20194,0.11692 2.4072,0.28755 3.61322,0.51418 1.20602,0.22662 2.3914,0.50514 3.55379,0.8325 1.16239,0.32737 2.30179,0.70354 3.41633,1.12655 1.11454,0.42302 2.20401,0.89255 3.26647,1.40612 1.06245,0.51356 2.09805,1.07115 3.1042,1.67018 1.00615,0.59902 1.98289,1.23987 2.9285,1.91926 0.94561,0.67939 1.86008,1.39767 2.74092,2.15232 0.88084,0.75466 1.72805,1.54557 2.5399,2.3704 0.81184,0.82483 1.58836,1.68358 2.32699,2.57349 0.73862,0.88991 1.43948,1.81066 2.10064,2.76055 0.66117,0.9499 1.28242,1.92889 1.8619,2.93367 0.57949,1.00479 1.11718,2.03568 1.61076,3.09026 0.49357,1.05457 0.94325,2.13256 1.34669,3.23184 0.40343,1.09927 0.76063,2.21957 1.0697,3.35845 0.30907,1.13888 0.56984,2.29668 0.78031,3.47007 0.21047,1.17339 0.37088,2.36236 0.47853,3.56516 0.10764,1.20281 0.1627,2.41916 0.16329,3.64629 l -3.19722,0.002 h 11.13162 l -12.48709,21.60023 -12.48761,-21.60023 h 6.38307 c -5.4e-4,-0.90558 -0.0415,-1.80313 -0.12092,-2.69079 -0.0796,-0.88885 -0.19793,-1.76787 -0.35347,-2.63498 -0.15553,-0.86711 -0.34831,-1.72206 -0.5767,-2.56367 -0.2284,-0.84161 -0.49252,-1.66968 -0.79065,-2.48202 -0.29814,-0.81234 -0.63003,-1.60918 -0.99478,-2.38848 -0.36474,-0.77931 -0.76188,-1.54107 -1.1901,-2.28359 -0.42823,-0.74251 -0.88756,-1.46587 -1.37615,-2.16782 -0.48859,-0.70195 -1.00653,-1.38256 -1.55236,-2.04019 -0.54582,-0.65762 -1.11985,-1.29216 -1.71979,-1.90169 -0.59994,-0.60953 -1.22596,-1.19416 -1.87689,-1.75183 -0.65092,-0.55768 -1.32641,-1.08855 -2.0252,-1.5906 -0.69878,-0.50206 -1.42068,-0.97534 -2.16421,-1.418 -0.74352,-0.44267 -1.50878,-0.85452 -2.29391,-1.23404 -0.78514,-0.37951 -1.59019,-0.72661 -2.41381,-1.03921 -0.82362,-0.3126 -1.66592,-0.59059 -2.52491,-0.83251 -0.85898,-0.24192 -1.73497,-0.44799 -2.62619,-0.61546 -0.89123,-0.16748 -1.78192,-0.29342 -2.67013,-0.37983 -0.88821,-0.0864 -1.7737,-0.13285 -2.65461,-0.14056 -0.88092,-0.008 -1.75737,0.0234 -2.62672,0.092 -0.86934,0.0686 -1.73187,0.17473 -2.58537,0.31729 -0.8535,0.14257 -1.69774,0.32123 -2.53111,0.53537 -0.83337,0.21414 -1.65549,0.4639 -2.46445,0.74724 -0.80896,0.28334 -1.60459,0.60068 -2.38487,0.95085 -0.78028,0.35017 -1.54556,0.73311 -2.29288,1.14773 -0.747317,0.41463 -1.476872,0.86068 -2.186947,1.33739 -0.710075,0.4767 -1.400569,0.9839 -2.069125,1.52032 -0.668555,0.53641 -1.315108,1.10227 -1.937866,1.69602 -0.622757,0.59374 -1.221524,1.21526 -1.794206,1.86397 -0.572681,0.6487 -1.119299,1.32442 -1.637626,2.02571 -0.518326,0.70129 -1.008434,1.42821 -1.468127,2.17971 -0.459693,0.75151 -0.888928,1.52765 -1.28571,2.32699 -0.396782,0.79934 -0.761297,1.62172 -1.090889,2.46652 -0.329593,0.84481 -0.618799,1.697 -0.868164,2.55385 -0.249366,0.85685 -0.45874,1.71853 -0.629419,2.58279 -0.17068,0.86426 -0.302308,1.73127 -0.395842,2.59829 -0.09353,0.86702 -0.148986,1.73419 -0.166915,2.59932 -0.01793,0.86514 0.0017,1.72832 0.05788,2.58693 0.05614,0.8586 0.148843,1.71261 0.277502,2.56005 0.12866,0.84743 0.292834,1.68812 0.492477,2.51974 0.199643,0.83162 0.434747,1.65432 0.703833,2.46548 0.269086,0.81117 0.572516,1.61069 0.909505,2.39675 0.336989,0.78607 0.707176,1.55828 1.110527,2.31459 0.40335,0.75632 0.839758,1.49706 1.30793,2.21899 0.468172,0.72192 0.968197,1.42551 1.49965,2.1084 0.531453,0.68289 1.094559,1.34464 1.687752,1.98385 0.593194,0.63922 1.216777,1.25551 1.870171,1.8464 0.653393,0.59089 1.336401,1.15655 2.048453,1.69447 0.712053,0.53793 1.452916,1.04828 2.222087,1.52859 0.769171,0.48032 1.552831,0.92231 2.348691,1.32602 0.79587,0.40371 1.60385,0.76934 2.42156,1.09709 0.81771,0.32775 1.64524,0.61726 2.47995,0.86972 0.83471,0.25245 1.67702,0.46763 2.52388,0.64543 0.84686,0.17781 1.69814,0.31839 2.5523,0.4222 0.85416,0.10381 1.71119,0.17107 2.5678,0.20154 0.85661,0.0305 1.71308,0.0241 2.56729,-0.0181 0.8542,-0.0422 1.70585,-0.12037 2.55281,-0.23461 0.84696,-0.11424 1.68901,-0.26448 2.52388,-0.4501 0.83486,-0.18562 1.66255,-0.40667 2.48047,-0.66301 0.81792,-0.25634 1.62646,-0.54796 2.42259,-0.87437 0.79613,-0.3264 1.57972,-0.68783 2.34921,-1.08365 0.76948,-0.39582 1.5244,-0.82629 2.26239,-1.29088 0.738,-0.46458 1.45946,-0.96334 2.16111,-1.49603 0.70165,-0.53269 1.38386,-1.09898 2.04432,-1.69912 0.66046,-0.60014 1.29915,-1.23372 1.91358,-1.90066 l 7.83776,7.22075 c -0.83145,0.90251 -1.69575,1.75981 -2.5895,2.57193 -0.89375,0.81212 -1.81675,1.57876 -2.76624,2.2996 -0.94949,0.72085 -1.92519,1.39601 -2.92385,2.02469 -0.99867,0.62868 -2.02055,1.21103 -3.06183,1.74666 -1.04128,0.53563 -2.1018,1.02436 -3.17914,1.46606 -1.07733,0.4417 -2.17153,0.83651 -3.27835,1.18339 -1.10682,0.34689 -2.22663,0.64592 -3.35638,0.8971 -1.12976,0.25119 -2.26918,0.45468 -3.4153,0.60927 -1.14612,0.15459 -2.29864,0.26069 -3.45457,0.31781 -1.15593,0.0571 -2.31555,0.065 -3.47472,0.0238 -1.15918,-0.0412 -2.31835,-0.13185 -3.47421,-0.27233 -1.15586,-0.14048 -2.30807,-0.33094 -3.45405,-0.57155 -1.14598,-0.2406 -2.28575,-0.53119 -3.4153,-0.87281 -1.12954,-0.34162 -2.24881,-0.73419 -3.355348,-1.17771 -1.106541,-0.44351 -2.20034,-0.93836 -3.277319,-1.48466 -1.076979,-0.5463 -2.137246,-1.14424 -3.178101,-1.79421 -1.040855,-0.64996 -2.04349,-1.34016 -3.007051,-2.06809 -0.963562,-0.72792 -1.888259,-1.49328 -2.772441,-2.29288 -0.884182,-0.7996 -1.727876,-1.63356 -2.530595,-2.49856 -0.802719,-0.86499 -1.564411,-1.761 -2.283581,-2.6851 -0.719171,-0.9241 -1.395796,-1.87614 -2.029334,-2.85306 -0.633538,-0.97692 -1.224097,-1.97894 -1.769918,-3.0024 -0.54582,-1.02346 -1.047249,-2.0684 -1.503267,-3.13211 -0.456019,-1.06371 -0.866284,-2.14605 -1.230416,-3.24373 -0.364132,-1.09768 -0.681719,-2.21086 -0.95188,-3.33623 -0.27016,-1.12536 -0.493038,-2.26284 -0.667143,-3.40961 -0.174104,-1.14677 -0.299723,-2.30302 -0.375687,-3.4649 -0.07596,-1.16189 -0.102293,-2.32933 -0.07803,-3.50005 0.02426,-1.17071 0.09925,-2.34435 0.225826,-3.51761 0.126572,-1.17327 0.304919,-2.34654 0.535885,-3.51607 0.230966,-1.16953 0.514699,-2.33537 0.852144,-3.49487 0.337445,-1.15951 0.728597,-2.3124 1.174606,-3.45561 0.446009,-1.1432 0.938946,-2.25662 1.475878,-3.3383 0.536932,-1.08168 1.117881,-2.1317 1.739946,-3.14864 0.622065,-1.01695 1.285034,-2.00069 1.986442,-2.94969 0.701408,-0.949 1.440924,-1.86308 2.215885,-2.74092 0.774962,-0.87784 1.58555,-1.71938 2.428276,-2.52284 0.842726,-0.80347 1.717878,-1.56907 2.622579,-2.29495 0.9047,-0.72589 1.838944,-1.41216 2.799829,-2.05724 0.960885,-0.64509 1.948229,-1.24915 2.959509,-1.81023 1.011281,-0.56108 2.04625,-1.07902 3.102137,-1.55287 1.055886,-0.47386 2.132491,-0.90332 3.227191,-1.28675 1.0947,-0.38342 2.20747,-0.72101 3.3352,-1.01079 1.12773,-0.28978 2.27066,-0.5321 3.42563,-0.72502 1.15497,-0.19292 2.32208,-0.33658 3.49849,-0.42943 1.17642,-0.0928 2.36224,-0.13497 3.55431,-0.12454 z"
       style="fill-opacity:1;fill-rule:evenodd;fill:#000000"
       id="path5" /></g></svg>
